<svg width="500" height="500" viewBox="0 0 544 616" fill="none" xmlns="http://www.w3.org/2000/svg">
<g filter="url(#filter0_d_6501_1669)">
<path d="M287.414 607.112C253.613 604.868 221.299 597.088 191.385 584.667C154.189 569.223 120.744 546.635 92.7895 518.63C64.8348 490.627 42.3 457.142 26.9202 419.917C12.1188 384.099 3.96557 344.858 4.00109 303.753C4.03661 262.65 12.2577 223.425 27.121 187.629C42.5651 150.43 65.1577 116.985 93.1608 89.0308C121.162 61.0786 154.643 38.5466 191.868 23.1643C221.803 10.7945 254.131 3.07099 287.938 0.887695L287.909 33.5561C258.46 35.6827 230.326 42.5026 204.261 53.273C171.109 66.968 141.23 87.0967 116.186 112.1C91.1384 137.102 70.9581 166.946 57.2058 200.073C43.9536 231.987 36.6257 267.015 36.5939 303.781C36.5622 340.55 43.832 375.594 57.0265 407.528C70.724 440.682 90.8502 470.555 115.854 495.602C140.856 520.647 170.7 540.827 203.83 554.58C229.877 565.395 257.996 572.266 287.442 574.444L287.414 607.112Z" fill="url(#paint0_linear_6501_1669)" fill-opacity="0.3"/>
<path fill-rule="evenodd" clip-rule="evenodd" d="M347.627 332.659C347.62 340.276 370.051 359.888 375.97 365.818L468.151 458.175C478.4 468.662 483.772 461.238 493.069 448.004C499.177 439.313 509.476 424.665 513.892 415.101C514.826 413.083 515.19 411.852 516.311 409.721C525.112 392.95 532.049 370.794 535.825 352.096C541.914 321.971 544.344 315.501 518.315 315.479L362.369 315.344C353.052 315.336 347.635 323.206 347.627 332.659Z" fill="url(#paint1_linear_6501_1669)" fill-opacity="0.3"/>
<path fill-rule="evenodd" clip-rule="evenodd" d="M310.346 365.547L310.2 534.489C310.19 545.814 319.717 544.209 329.896 542.945C337.797 541.962 347.48 540.178 355.591 538.338C391.356 530.22 420.517 514.528 449.41 492.712C450.489 491.899 450.97 491.673 451.961 490.936C465.323 480.973 456.826 475.43 450.388 468.983L344.349 362.759C339.573 357.975 334.938 350.839 325.949 350.831C317.679 350.824 310.353 357.188 310.346 365.547Z" fill="url(#paint2_linear_6501_1669)" fill-opacity="0.3"/>
<path fill-rule="evenodd" clip-rule="evenodd" d="M300.265 274.266C316.63 274.28 329.888 287.556 329.874 303.923C329.86 320.288 316.578 333.544 300.214 333.53C283.849 333.515 270.591 320.237 270.605 303.872C270.619 287.505 283.901 274.252 300.265 274.266Z" fill="url(#paint3_linear_6501_1669)" fill-opacity="0.3"/>
<path fill-rule="evenodd" clip-rule="evenodd" d="M345.94 278.076C345.936 283.237 346.357 285.717 349.577 289.159C352.616 292.41 353.182 293.524 358.115 294.546C366.973 296.376 497.84 295.534 519.199 295.553C522.669 295.556 529.845 295.95 532.875 295.381C538.019 294.412 539.995 290.942 539.999 286.043C540.012 271.364 536.03 254.351 532.805 242.149C528.806 227.019 525.852 219.138 519.527 204.333C511.915 186.516 497.308 164.585 484.961 149.684C483.765 148.241 483.47 147.432 482.06 146.521C473.865 141.235 468.452 150.148 458.885 159.698C453.183 165.391 448.116 170.452 442.411 176.147C431.215 187.321 420.655 197.862 409.462 209.039L351.794 266.597C348.561 269.77 345.946 271.935 345.94 278.076Z" fill="url(#paint4_linear_6501_1669)" fill-opacity="0.3"/>
<path fill-rule="evenodd" clip-rule="evenodd" d="M134.926 476.013C134.919 484.364 158.805 498.592 164.185 502.205C175.095 509.543 188.163 516.176 201.098 521.623C222.384 530.587 244.471 536.221 268.212 538.587C272.095 538.974 276.383 540.202 280.064 538.159C283.021 536.518 284.758 532.41 284.762 528.123L284.9 367.85C284.922 342.706 265.075 342.785 256.833 351.005C256.096 351.741 255.996 351.917 255.141 352.778L252.961 354.931C252.074 355.86 251.94 356.109 250.853 357.156L249.037 358.8C248.906 358.924 248.714 359.1 248.586 359.221C248.533 359.271 246.901 360.898 246.85 360.948C246.727 361.077 246.55 361.263 246.429 361.394L162.359 445.396C160.689 447.239 159.845 448.123 158.127 449.828L141.549 466.173C139.181 468.782 134.929 471.928 134.926 476.013Z" fill="url(#paint5_linear_6501_1669)" fill-opacity="0.3"/>
<path fill-rule="evenodd" clip-rule="evenodd" d="M65.9577 310.221C59.9253 315.996 66.189 343.084 67.3045 349.468C69.56 362.421 73.817 376.444 78.8389 389.55C87.1017 411.118 98.3235 430.959 113.048 449.732C115.456 452.802 117.537 456.747 121.56 457.99C124.791 458.989 128.958 457.399 132.055 454.435L247.829 343.602C265.992 326.215 252.198 311.944 240.56 311.685C239.52 311.663 239.323 311.712 238.11 311.691L235.048 311.608C233.762 311.61 233.49 311.686 231.982 311.627L229.538 311.454C229.358 311.445 229.099 311.428 228.922 311.419C228.849 311.416 226.546 311.364 226.475 311.362C226.296 311.362 226.04 311.363 225.861 311.366L107.043 308.83C104.557 308.901 103.335 308.903 100.916 308.843L77.644 308.191C74.1218 308.287 68.9084 307.396 65.9577 310.221Z" fill="url(#paint6_linear_6501_1669)" fill-opacity="0.3"/>
<path fill-rule="evenodd" clip-rule="evenodd" d="M70.4258 294.3L240.23 294.447C246.64 294.453 254.098 287.776 254.107 277.996C254.114 269.731 246.709 264.949 242.21 260.442L137.04 155.088C118.744 136.561 106.785 159.23 96.5175 174.762C91.1102 182.947 84.197 195.44 80.3966 204.571C71.2049 226.663 62.9968 250.996 60.985 275.307C60.1422 285.472 58.6325 294.29 70.4258 294.3Z" fill="url(#paint7_linear_6501_1669)" fill-opacity="0.3"/>
<path fill-rule="evenodd" clip-rule="evenodd" d="M145.075 126.287C145.065 137.871 148.754 138.212 158.702 148.177L254.352 243.992C260.984 250.635 264.219 257.213 274.918 257.222C285.396 257.231 290.519 248.093 290.529 237.31L290.663 82.2309C290.681 61.2574 284.848 63.1348 268.638 65.3711C227.553 71.0407 189.749 85.538 157.342 109.961C152.294 113.764 145.083 117.815 145.075 126.287Z" fill="url(#paint8_linear_6501_1669)" fill-opacity="0.3"/>
<path fill-rule="evenodd" clip-rule="evenodd" d="M324.3 257.265C336.033 257.275 338.116 251.695 345.753 244.071L431.727 158.505C431.851 158.377 432.02 158.183 432.141 158.054C437.299 152.482 459.559 132.985 459.564 127.428C459.567 123.688 457.12 121.375 454.665 119.335C452.069 117.18 450.109 115.473 447.566 113.434C439.427 106.913 425.807 98.0317 415.974 93.0363L398.09 84.0573C386.498 78.4202 372.849 74.0439 358.768 70.5089C350.754 68.4961 320.102 61.5674 314.04 65.7579C309.013 69.2361 310.594 79.3023 310.586 88.3136L310.399 244.302C311.862 251.528 318.338 257.259 324.3 257.265Z" fill="url(#paint9_linear_6501_1669)" fill-opacity="0.3"/>
</g>
<defs>
<filter id="filter0_d_6501_1669" x="0.000976562" y="0.887695" width="543.998" height="614.225" filterUnits="userSpaceOnUse" color-interpolation-filters="sRGB">
<feFlood flood-opacity="0" result="BackgroundImageFix"/>
<feColorMatrix in="SourceAlpha" type="matrix" values="0 0 0 0 0 0 0 0 0 0 0 0 0 0 0 0 0 0 127 0" result="hardAlpha"/>
<feOffset dy="4"/>
<feGaussianBlur stdDeviation="2"/>
<feComposite in2="hardAlpha" operator="out"/>
<feColorMatrix type="matrix" values="0 0 0 0 0 0 0 0 0 0 0 0 0 0 0 0 0 0 0.25 0"/>
<feBlend mode="normal" in2="BackgroundImageFix" result="effect1_dropShadow_6501_1669"/>
<feBlend mode="normal" in="SourceGraphic" in2="effect1_dropShadow_6501_1669" result="shape"/>
</filter>
<linearGradient id="paint0_linear_6501_1669" x1="145.969" y1="0.887695" x2="145.969" y2="607.112" gradientUnits="userSpaceOnUse">
<stop stop-color="#2E3C51"/>
<stop offset="0.9998" stop-color="#2E3C51" stop-opacity="0.04"/>
</linearGradient>
<linearGradient id="paint1_linear_6501_1669" x1="443.726" y1="315.344" x2="443.726" y2="463.141" gradientUnits="userSpaceOnUse">
<stop stop-color="#2E3C51"/>
<stop offset="0.9998" stop-color="#2E3C51" stop-opacity="0.04"/>
</linearGradient>
<linearGradient id="paint2_linear_6501_1669" x1="384.619" y1="350.831" x2="384.619" y2="543.832" gradientUnits="userSpaceOnUse">
<stop stop-color="#2E3C51"/>
<stop offset="0.9998" stop-color="#2E3C51" stop-opacity="0.04"/>
</linearGradient>
<linearGradient id="paint3_linear_6501_1669" x1="300.239" y1="274.266" x2="300.239" y2="333.53" gradientUnits="userSpaceOnUse">
<stop stop-color="#2E3C51"/>
<stop offset="0.9998" stop-color="#2E3C51" stop-opacity="0.04"/>
</linearGradient>
<linearGradient id="paint4_linear_6501_1669" x1="442.969" y1="144.944" x2="442.969" y2="295.73" gradientUnits="userSpaceOnUse">
<stop stop-color="#2E3C51"/>
<stop offset="0.9998" stop-color="#2E3C51" stop-opacity="0.04"/>
</linearGradient>
<linearGradient id="paint5_linear_6501_1669" x1="209.913" y1="346.089" x2="209.913" y2="539.307" gradientUnits="userSpaceOnUse">
<stop stop-color="#2E3C51"/>
<stop offset="0.9998" stop-color="#2E3C51" stop-opacity="0.04"/>
</linearGradient>
<linearGradient id="paint6_linear_6501_1669" x1="159.995" y1="308.131" x2="159.995" y2="458.289" gradientUnits="userSpaceOnUse">
<stop stop-color="#2E3C51"/>
<stop offset="0.9998" stop-color="#2E3C51" stop-opacity="0.04"/>
</linearGradient>
<linearGradient id="paint7_linear_6501_1669" x1="157.265" y1="148.139" x2="157.265" y2="294.447" gradientUnits="userSpaceOnUse">
<stop stop-color="#2E3C51"/>
<stop offset="0.9998" stop-color="#2E3C51" stop-opacity="0.04"/>
</linearGradient>
<linearGradient id="paint8_linear_6501_1669" x1="217.869" y1="64.0626" x2="217.869" y2="257.222" gradientUnits="userSpaceOnUse">
<stop stop-color="#2E3C51"/>
<stop offset="0.9998" stop-color="#2E3C51" stop-opacity="0.04"/>
</linearGradient>
<linearGradient id="paint9_linear_6501_1669" x1="384.96" y1="64.4354" x2="384.96" y2="257.265" gradientUnits="userSpaceOnUse">
<stop stop-color="#2E3C51"/>
<stop offset="0.85" stop-color="#2E3C51" stop-opacity="0.0976"/>
<stop offset="1" stop-color="#2E3C51" stop-opacity="0.04"/>
</linearGradient>
</defs>
</svg>
