 <svg
          xmlns="http://www.w3.org/2000/svg"
          width="32"
          height="32"
          viewBox="0 0 32 32"
          fill="none"
        >
          <path
            d="M17.479 31.9776C25.6222 31.2291 32 24.3615 32 16C32 7.63854 25.6222 0.770904 17.479 0.0224379V3.80379C18.2784 3.92955 19.0583 4.1672 19.7949 4.51152C20.9501 5.05151 21.9701 5.84033 22.7809 6.82081L20.3882 8.77752C19.8693 8.15001 19.2165 7.64517 18.4771 7.29957C18.1557 7.14932 17.8214 7.0308 17.479 6.94509V25.3223C17.8349 25.2332 18.1821 25.1087 18.5151 24.9499C19.2518 24.5987 19.9007 24.0889 20.4147 23.4575C20.9288 22.8261 21.2951 22.0888 21.4873 21.2992C21.6794 20.5095 21.6924 19.6873 21.5254 18.892C21.3585 18.0967 21.0157 17.3483 20.5219 16.7011C20.0281 16.0538 19.3957 15.5239 18.6706 15.1498L20.0971 12.4152C21.2302 12.9998 22.2183 13.8278 22.9898 14.8391C23.7614 15.8504 24.297 17.0197 24.5579 18.2624C24.8188 19.505 24.7984 20.7898 24.4982 22.0236C24.198 23.2574 23.6256 24.4094 22.8224 25.396C22.0192 26.3826 21.0053 27.1791 19.8542 27.7279C19.1004 28.0873 18.3001 28.3345 17.479 28.4636V31.9776Z"
            fill="url(#paint0_linear_126_36)"
          />
          <path
            d="M14.7899 32V28.4636C13.9905 28.3379 13.2107 28.1002 12.474 27.7559C11.3188 27.2159 10.2988 26.4271 9.48806 25.4466L11.8808 23.4899C12.3997 24.1174 13.0524 24.6223 13.7918 24.9678C14.1132 25.1181 14.4475 25.2366 14.7899 25.3223V6.94509C14.434 7.0342 14.0868 7.15875 13.7538 7.31751C13.0171 7.6687 12.3682 8.17849 11.8542 8.80992C11.3401 9.44135 10.9738 10.1786 10.7817 10.9683C10.5896 11.7579 10.5765 12.5802 10.7435 13.3754C10.9104 14.1707 11.2532 14.9191 11.747 15.5664C12.2408 16.2136 12.8732 16.7435 13.5983 17.1176L12.1718 19.8522C11.0387 19.2676 10.0506 18.4397 9.27907 17.4284C8.50755 16.417 7.97193 15.2477 7.71105 14.0051C7.45016 12.7624 7.47054 11.4777 7.77071 10.2438C8.07088 9.01 8.64331 7.85804 9.44652 6.87143C10.2497 5.88482 11.2636 5.08828 12.4147 4.53954C13.1685 4.18016 13.9688 3.93296 14.7899 3.80379V0C6.51862 0.62025 0 7.54672 0 16C0 24.4533 6.51862 31.3798 14.7899 32Z"
            fill="url(#paint1_linear_126_36)"
          />
          <defs>
            <linearGradient
              id="paint0_linear_126_36"
              x1="16"
              y1="0"
              x2="16"
              y2="32"
              gradientUnits="userSpaceOnUse"
            >
              <stop stop-color="#FFA23E" />
              <stop offset="1" stop-color="#CE781B" />
            </linearGradient>
            <linearGradient
              id="paint1_linear_126_36"
              x1="16"
              y1="0"
              x2="16"
              y2="32"
              gradientUnits="userSpaceOnUse"
            >
              <stop stop-color="#FFA23E" />
              <stop offset="1" stop-color="#CE781B" />
            </linearGradient>
          </defs>
        </svg>