<svg width="753" height="375" viewBox="0 0 753 375" fill="none" xmlns="http://www.w3.org/2000/svg">
<g clip-path="url(#clip0_148_59)">
<g opacity="0.5">
<path d="M326.869 750.967C561.786 750.967 752.224 560.699 752.224 325.993C752.224 91.2861 561.786 -98.9814 326.869 -98.9814C91.9513 -98.9814 -98.4871 91.2861 -98.4871 325.993C-98.4871 560.699 91.9513 750.967 326.869 750.967Z" stroke="#2E3C51" stroke-opacity="0.3" stroke-miterlimit="10"/>
<path d="M290.858 721.257C486.623 721.257 645.32 562.702 645.32 367.113C645.32 171.525 486.623 12.9697 290.858 12.9697C95.0944 12.9697 -63.6038 171.525 -63.6038 367.113C-63.6038 562.702 95.0944 721.257 290.858 721.257Z" stroke="#2E3C51" stroke-opacity="0.3" stroke-miterlimit="10"/>
<path d="M260.843 696.505C423.98 696.505 556.228 564.376 556.228 401.385C556.228 238.395 423.98 106.265 260.843 106.265C97.7062 106.265 -34.5418 238.395 -34.5418 401.385C-34.5418 564.376 97.7062 696.505 260.843 696.505Z" stroke="#2E3C51" stroke-opacity="0.3" stroke-miterlimit="10"/>
<path d="M235.837 675.876C371.787 675.876 481.994 565.766 481.994 429.94C481.994 294.112 371.787 184.002 235.837 184.002C99.8877 184.002 -10.3207 294.112 -10.3207 429.94C-10.3207 565.766 99.8877 675.876 235.837 675.876Z" stroke="#2E3C51" stroke-opacity="0.3" stroke-miterlimit="10"/>
<path d="M214.996 658.683C328.285 658.683 420.125 566.926 420.125 453.738C420.125 340.55 328.285 248.793 214.996 248.793C101.706 248.793 9.867 340.55 9.867 453.738C9.867 566.926 101.706 658.683 214.996 658.683Z" stroke="#2E3C51" stroke-opacity="0.3" stroke-miterlimit="10"/>
<path d="M197.623 644.359C292.031 644.359 368.564 567.894 368.564 473.57C368.564 379.246 292.031 302.781 197.623 302.781C103.214 302.781 26.6802 379.246 26.6802 473.57C26.6802 567.894 103.214 644.359 197.623 644.359Z" stroke="#2E3C51" stroke-opacity="0.3" stroke-miterlimit="10"/>
<path d="M183.149 632.417C261.821 632.417 325.598 568.698 325.598 490.097C325.598 411.496 261.821 347.777 183.149 347.777C104.477 347.777 40.7011 411.496 40.7011 490.097C40.7011 568.698 104.477 632.417 183.149 632.417Z" stroke="#2E3C51" stroke-opacity="0.3" stroke-miterlimit="10"/>
</g>
</g>
<defs>
<clipPath id="clip0_148_59">
<rect width="753" height="375" fill="white"/>
</clipPath>
</defs>
</svg>
