 <svg
              xmlns="http://www.w3.org/2000/svg"
              width="24"
              height="25"
              viewBox="0 0 24 25"
              fill="none"
            >
              <path
                d="M4 8.78906C4 7.7282 4.42143 6.71078 5.17157 5.96064C5.92172 5.21049 6.93913 4.78906 8 4.78906H16C17.0609 4.78906 18.0783 5.21049 18.8284 5.96064C19.5786 6.71078 20 7.7282 20 8.78906V16.7891C20 17.8499 19.5786 18.8673 18.8284 19.6175C18.0783 20.3676 17.0609 20.7891 16 20.7891H8C6.93913 20.7891 5.92172 20.3676 5.17157 19.6175C4.42143 18.8673 4 17.8499 4 16.7891V8.78906Z"
                stroke="#808C9C"
                stroke-width="1.5"
                stroke-linecap="round"
                stroke-linejoin="round"
              />
              <path
                d="M16.5 8.28906V8.29906M9 12.7891C9 13.5847 9.31607 14.3478 9.87868 14.9104C10.4413 15.473 11.2044 15.7891 12 15.7891C12.7956 15.7891 13.5587 15.473 14.1213 14.9104C14.6839 14.3478 15 13.5847 15 12.7891C15 11.9934 14.6839 11.2304 14.1213 10.6677C13.5587 10.1051 12.7956 9.78906 12 9.78906C11.2044 9.78906 10.4413 10.1051 9.87868 10.6677C9.31607 11.2304 9 11.9934 9 12.7891Z"
                stroke="#808C9C"
                stroke-width="1.5"
                stroke-linecap="round"
                stroke-linejoin="round"
              />
            </svg>