<svg xmlns="http://www.w3.org/2000/svg" width="20" height="21" viewBox="0 0 20 21" fill="none">
  <g clip-path="url(#clip0_326_486)">
    <path d="M9.46876 11.7148C9.6797 11.5039 10.043 11.5039 10.2539 11.7148L13.2617 14.7226C13.8164 15.2773 14.5547 15.582 15.3359 15.582H15.9258L12.1328 19.375C10.9492 20.5273 9.02735 20.5273 7.84376 19.375L4.03517 15.5703H4.39845C5.1797 15.5703 5.91798 15.2656 6.47267 14.7109L9.46876 11.7148ZM10.2539 8.83982C10.0039 9.05467 9.6836 9.05857 9.46876 8.83982L6.47267 5.84373C5.91798 5.25389 5.1797 4.98435 4.39845 4.98435H4.03517L7.83985 1.17811C9.02735 -0.00728518 10.9492 -0.00728518 12.1328 1.17811L15.9297 4.97264H15.3359C14.5547 4.97264 13.8164 5.27732 13.2617 5.83201L10.2539 8.83982ZM4.39845 5.86326C4.93751 5.86326 5.4336 6.08201 5.84767 6.46482L8.84376 9.46092C9.12501 9.70701 9.4922 9.88279 9.86329 9.88279C10.2305 9.88279 10.5977 9.70701 10.8789 9.46092L13.8867 6.45311C14.2695 6.0742 14.7969 5.85545 15.3359 5.85545H16.8086L19.0859 8.13279C20.2695 9.31639 20.2695 11.2383 19.0859 12.4219L16.8086 14.6992H15.3359C14.7969 14.6992 14.2695 14.4804 13.8867 14.0976L10.8789 11.0898C10.3359 10.5469 9.38673 10.5469 8.84376 11.0937L5.84767 14.0859C5.4336 14.4687 4.93751 14.6875 4.39845 14.6875H3.15548L0.889073 12.4219C-0.296317 11.2383 -0.296317 9.31639 0.889073 8.13279L3.15548 5.86326H4.39845Z" fill="#808C9C"/>
  </g>
  <defs>
    <clipPath id="clip0_326_486">
      <rect width="20" height="20" fill="white" transform="translate(0 0.289062)"/>
    </clipPath>
  </defs>
</svg>