  <svg
              xmlns="http://www.w3.org/2000/svg"
              width="24"
              height="25"
              viewBox="0 0 24 25"
              fill="none"
            >
              <path
                d="M3 21.7893L4.65 17.9893C3.38766 16.1973 2.82267 14.0063 3.06104 11.8274C3.29942 9.64845 4.32479 7.63141 5.94471 6.1548C7.56463 4.67818 9.66775 3.84349 11.8594 3.80738C14.051 3.77126 16.1805 4.5362 17.8482 5.95865C19.5159 7.38109 20.6071 9.36325 20.9172 11.5331C21.2272 13.703 20.7347 15.9115 19.5321 17.744C18.3295 19.5766 16.4994 20.9073 14.3854 21.4864C12.2713 22.0655 10.0186 21.8532 8.05 20.8893L3 21.7893Z"
                stroke="#808C9C"
                stroke-width="1.5"
                stroke-linecap="round"
                stroke-linejoin="round"
              />
              <path
                d="M9 10.7891C9 10.9217 9.05268 11.0488 9.14645 11.1426C9.24021 11.2364 9.36739 11.2891 9.5 11.2891C9.63261 11.2891 9.75979 11.2364 9.85355 11.1426C9.94732 11.0488 10 10.9217 10 10.7891V9.78906C10 9.65645 9.94732 9.52928 9.85355 9.43551C9.75979 9.34174 9.63261 9.28906 9.5 9.28906C9.36739 9.28906 9.24021 9.34174 9.14645 9.43551C9.05268 9.52928 9 9.65645 9 9.78906V10.7891ZM9 10.7891C9 12.1151 9.52678 13.3869 10.4645 14.3246C11.4021 15.2623 12.6739 15.7891 14 15.7891M14 15.7891H15C15.1326 15.7891 15.2598 15.7364 15.3536 15.6426C15.4473 15.5488 15.5 15.4217 15.5 15.2891C15.5 15.1565 15.4473 15.0293 15.3536 14.9355C15.2598 14.8417 15.1326 14.7891 15 14.7891H14C13.8674 14.7891 13.7402 14.8417 13.6464 14.9355C13.5527 15.0293 13.5 15.1565 13.5 15.2891C13.5 15.4217 13.5527 15.5488 13.6464 15.6426C13.7402 15.7364 13.8674 15.7891 14 15.7891Z"
                stroke="#808C9C"
                stroke-width="1.5"
                stroke-linecap="round"
                stroke-linejoin="round"
              />
            </svg>